<svg xmlns="http://www.w3.org/2000/svg" width="26.586" height="26.587" viewBox="0 0 26.586 26.587"><defs><style>.a{fill:#fff;}</style></defs><path class="a" d="M312.109,96.2a.829.829,0,0,1-.587-.244l-1.939-1.939a.831.831,0,0,1,1.175-1.175l1.305,1.3,2.74-3.2a.831.831,0,0,1,1.262,1.082l-3.323,3.877a.833.833,0,0,1-.6.289Zm0,0" transform="translate(-293.277 -85.951)"/><path class="a" d="M137.486,420.985a4.159,4.159,0,0,1-4.154-4.154.831.831,0,1,1,1.662,0,2.492,2.492,0,1,0,4.985,0,.831.831,0,0,1,1.662,0A4.159,4.159,0,0,1,137.486,420.985Zm0,0" transform="translate(-126.409 -394.398)"/><path class="a" d="M20.217,87.589H1.939A1.939,1.939,0,0,1,.678,84.177a.764.764,0,0,1,.089-.067,7.445,7.445,0,0,0,2.557-5.616V75.4A7.7,7.7,0,0,1,9.269,67.87a.831.831,0,0,1,.383,1.617A6.049,6.049,0,0,0,4.985,75.4v3.091a9.111,9.111,0,0,1-3.216,6.947c-.017.013-.031.026-.049.038a.274.274,0,0,0-.059.172.28.28,0,0,0,.277.277H20.217a.28.28,0,0,0,.277-.277.265.265,0,0,0-.06-.172c-.017-.012-.032-.024-.048-.038A9.035,9.035,0,0,1,18.059,82.4a.83.83,0,1,1,1.5-.71,7.4,7.4,0,0,0,1.831,2.419.953.953,0,0,1,.084.063,1.938,1.938,0,0,1-1.258,3.412Zm0,0" transform="translate(0 -64.325)"/><path class="a" d="M241.868,14.4a7.2,7.2,0,1,1,7.2-7.2A7.209,7.209,0,0,1,241.868,14.4Zm0-12.739A5.539,5.539,0,1,0,247.407,7.2,5.545,5.545,0,0,0,241.868,1.662Zm0,0" transform="translate(-222.483 0)"/></svg>