<svg xmlns="http://www.w3.org/2000/svg" width="22.798" height="26.055" viewBox="0 0 22.798 26.055"><defs><style>.a{fill:#0090ff;}</style></defs><g transform="translate(-32 0)"><g transform="translate(32 0)"><g transform="translate(0 0)"><path class="a" d="M54.19,4.666,43.757.086a1.018,1.018,0,0,0-.822,0l-10.33,4.58A1.018,1.018,0,0,0,32,5.6v8.04a13.108,13.108,0,0,0,3.295,8.522A11.9,11.9,0,0,0,38.9,24.973a9.983,9.983,0,0,0,4.5,1.082,10.318,10.318,0,0,0,6.095-2.027,1.018,1.018,0,1,0-1.2-1.646,8.3,8.3,0,0,1-4.9,1.637c-4.9,0-9.364-4.948-9.364-10.381V6.26L43.35,2.13l9.412,4.132v7.376a10.775,10.775,0,0,1-1.557,5.485,1.018,1.018,0,0,0,1.75,1.04A12.811,12.811,0,0,0,54.8,13.638V5.6A1.018,1.018,0,0,0,54.19,4.666Z" transform="translate(-32 0)"/><path class="a" d="M135.57,150.38l-6.311,7.885-3.538-3.4a1.018,1.018,0,0,0-1.411,1.467l3.587,3.45,0,0a1.962,1.962,0,0,0,1.361.545l.082,0a1.964,1.964,0,0,0,1.4-.657l.036-.043,6.382-7.975a1.018,1.018,0,1,0-1.589-1.272Z" transform="translate(-119.317 -142.365)"/></g></g></g></svg>