<svg xmlns="http://www.w3.org/2000/svg" xmlns:xlink="http://www.w3.org/1999/xlink" width="53.638" height="46.489" viewBox="0 0 53.638 46.489">
  <defs>
    <linearGradient id="linear-gradient" x1="-0.051" y1="-0.136" x2="0.576" y2="0.82" gradientUnits="objectBoundingBox">
      <stop offset="0" stop-color="#bcbeff"/>
      <stop offset="0.227" stop-color="#aaadf8"/>
      <stop offset="0.68" stop-color="#7c83e5"/>
      <stop offset="1" stop-color="#5761d7"/>
    </linearGradient>
  </defs>
  <g id="backup_2_" data-name="backup (2)" transform="translate(0)">
    <path id="Path_7617" data-name="Path 7617" d="M43.224,9.968A11.843,11.843,0,0,0,21.312,5.858a14.009,14.009,0,1,0-7.3,25.963h2.645v11.25a3.422,3.422,0,0,0,3.418,3.418h13.5a3.422,3.422,0,0,0,3.418-3.418V31.821h5.721a10.932,10.932,0,0,0,.516-21.853Zm-9.381,33.1a.276.276,0,0,1-.275.275h-13.5a.275.275,0,0,1-.275-.275V38.913H33.843Zm0-7.3H19.8V23.5H33.843Zm0-15.409H19.8V18.715a.275.275,0,0,1,.275-.275h13.5a.275.275,0,0,1,.275.275Zm8.864,8.316H36.986V18.715A3.422,3.422,0,0,0,33.568,15.3h-13.5a3.422,3.422,0,0,0-3.418,3.418v9.963H14.008A10.866,10.866,0,1,1,20.921,9.429a1.572,1.572,0,0,0,2.471-.657,8.742,8.742,0,0,1,8.139-5.629,8.7,8.7,0,0,1,8.693,8.469,1.571,1.571,0,0,0,1.722,1.524c.254-.025.51-.037.76-.037a7.79,7.79,0,0,1,0,15.579Zm0,0" fill="url(#linear-gradient)"/>
    <path id="Path_7618" data-name="Path 7618" d="M240.743,381.1a1.758,1.758,0,1,0-1.515-1.514A1.759,1.759,0,0,0,240.743,381.1Zm0,0" transform="translate(-214.154 -338.045)" fill="url(#linear-gradient)"/>
  </g>
</svg>
