<svg xmlns="http://www.w3.org/2000/svg" xmlns:xlink="http://www.w3.org/1999/xlink" width="50.283" height="33.688" viewBox="0 0 50.283 33.688">
  <defs>
    <linearGradient id="linear-gradient" y1="-0.195" x2="0.535" y2="1.053" gradientUnits="objectBoundingBox">
      <stop offset="0" stop-color="#bcbeff"/>
      <stop offset="0.227" stop-color="#aaadf8"/>
      <stop offset="0.68" stop-color="#7c83e5"/>
      <stop offset="1" stop-color="#5761d7"/>
    </linearGradient>
  </defs>
  <g id="laptop" transform="translate(0 -84.489)">
    <g id="Group_2627" data-name="Group 2627" transform="translate(7.674 89.195)">
      <g id="Group_2626" data-name="Group 2626" transform="translate(0 0)">
        <path id="Path_7620" data-name="Path 7620" d="M111.989,132.411H79.217a1.082,1.082,0,0,0-1.082,1.082v16.344a1.082,1.082,0,0,0,2.164,0V134.575h30.607v15.262h0a1.082,1.082,0,0,0,2.164,0V133.493A1.082,1.082,0,0,0,111.989,132.411Z" transform="translate(-78.135 -132.411)" fill="url(#linear-gradient)"/>
      </g>
    </g>
    <g id="Group_2629" data-name="Group 2629" transform="translate(0 84.489)">
      <g id="Group_2628" data-name="Group 2628" transform="translate(0 0)">
        <path id="Path_7621" data-name="Path 7621" d="M49.309,110.486H47.316V87.76a3.275,3.275,0,0,0-3.271-3.271H6.238A3.275,3.275,0,0,0,2.967,87.76v22.726H.974A.974.974,0,0,0,0,111.46v1.912a4.81,4.81,0,0,0,4.8,4.8H45.478a4.81,4.81,0,0,0,4.8-4.8V111.46A.974.974,0,0,0,49.309,110.486ZM5.131,87.76a1.108,1.108,0,0,1,1.107-1.107H44.044a1.108,1.108,0,0,1,1.107,1.107v22.726H30.5a.952.952,0,0,0-.211.017.974.974,0,0,0-.79.956,1.492,1.492,0,0,1-1.491,1.491H22.276a1.492,1.492,0,0,1-1.491-1.491.977.977,0,0,0-1-.974H5.131Zm43.2,25.612h0a2.86,2.86,0,0,1-2.857,2.857H4.8a2.86,2.86,0,0,1-2.857-2.857v-.938h17.03a3.445,3.445,0,0,0,3.3,2.464h5.732a3.445,3.445,0,0,0,3.3-2.464h17.03v.938Z" transform="translate(0 -84.489)" fill="url(#linear-gradient)"/>
      </g>
    </g>
    <g id="Group_2631" data-name="Group 2631" transform="translate(18.092 95.168)">
      <g id="Group_2630" data-name="Group 2630" transform="translate(0 0)">
        <path id="Path_7622" data-name="Path 7622" d="M192.876,193.549a1.082,1.082,0,0,0-1.53,0l-6.806,6.806a1.082,1.082,0,0,0,1.53,1.53l6.806-6.806A1.082,1.082,0,0,0,192.876,193.549Z" transform="translate(-184.223 -193.232)" fill="url(#linear-gradient)"/>
      </g>
    </g>
    <g id="Group_2633" data-name="Group 2633" transform="translate(26.221 99.113)">
      <g id="Group_2632" data-name="Group 2632">
        <path id="Path_7623" data-name="Path 7623" d="M271.547,233.709a1.082,1.082,0,0,0-1.53,0l-2.711,2.711a1.082,1.082,0,0,0,1.53,1.53l2.711-2.711A1.082,1.082,0,0,0,271.547,233.709Z" transform="translate(-266.989 -233.392)" fill="url(#linear-gradient)"/>
      </g>
    </g>
  </g>
</svg>
