<svg xmlns="http://www.w3.org/2000/svg" xmlns:xlink="http://www.w3.org/1999/xlink" width="56.063" height="56.063" viewBox="0 0 56.063 56.063">
  <defs>
    <linearGradient id="linear-gradient" x1="-0.267" y1="0.314" x2="0.888" y2="0.794" gradientUnits="objectBoundingBox">
      <stop offset="0" stop-color="#bcbeff"/>
      <stop offset="0.227" stop-color="#aaadf8"/>
      <stop offset="0.68" stop-color="#7c83e5"/>
      <stop offset="1" stop-color="#5761d7"/>
    </linearGradient>
  </defs>
  <path id="network" d="M36.107,0a4.421,4.421,0,0,0-3.886,6.529l-7.243,7.243a5.856,5.856,0,0,0-7.218,0L12.109,8.12a2.909,2.909,0,0,0,.418-1.488A2.948,2.948,0,1,0,9.579,9.579a2.909,2.909,0,0,0,1.488-.418l5.651,5.651a5.857,5.857,0,0,0,0,7.218L7.386,31.363a4.376,4.376,0,1,0,.921,1.163l9.453-9.453a5.86,5.86,0,0,0,2.872,1.193v7.487a4.421,4.421,0,1,0,1.474,0V24.265a5.86,5.86,0,0,0,2.872-1.193l5.651,5.651a2.907,2.907,0,0,0-.419,1.488,2.948,2.948,0,1,0,2.948-2.948,2.909,2.909,0,0,0-1.488.418l-5.651-5.651a5.857,5.857,0,0,0,0-7.218l7.122-7.122A4.418,4.418,0,1,0,36.107,0Z" transform="matrix(0.839, 0.545, -0.545, 0.839, 22.073, 0)" fill="url(#linear-gradient)"/>
</svg>
