<svg xmlns="http://www.w3.org/2000/svg" xmlns:xlink="http://www.w3.org/1999/xlink" width="104.17" height="68.249" viewBox="0 0 104.17 68.249">
  <defs>
    <linearGradient id="linear-gradient" x1="0.17" y1="1.174" x2="0.832" y2="-0.175" gradientUnits="objectBoundingBox">
      <stop offset="0" stop-color="#ffd3a5"/>
      <stop offset="1" stop-color="#fd6585"/>
    </linearGradient>
    <clipPath id="clip-path">
      <path id="Path_6441" data-name="Path 6441" d="M89.011,39.737C88.8,24.113,76.092,11,60.42,11A30.03,30.03,0,0,0,35.884,24.176,14.364,14.364,0,0,0,13.572,36.144c0,.275.025.542.041.815-.018.327-.041.657-.041.981A23,23,0,0,0,1,57.975,21.336,21.336,0,0,0,22.274,79.249H66.289c.248,0,.489-.029.733-.038.246.009.487.038.735.038H85.363A19.866,19.866,0,0,0,105.17,59.443,20.146,20.146,0,0,0,89.011,39.737Z" transform="translate(868.195 1158.956)" fill="url(#linear-gradient)"/>
    </clipPath>
    <linearGradient id="linear-gradient-3" x1="0.685" y1="0.166" x2="-0.193" y2="0.896" xlink:href="#linear-gradient"/>
    <linearGradient id="linear-gradient-4" x1="0.523" y1="-2.275" x2="0.049" y2="-1.699" xlink:href="#linear-gradient"/>
  </defs>
  <g id="Group_2329" data-name="Group 2329" transform="translate(-815.195 -1029.956)">
    <g id="Group_2285" data-name="Group 2285" transform="translate(-52 -146)">
      <g id="cloud" transform="translate(866.195 1164.956)">
        <path id="Path_6441-2" data-name="Path 6441" d="M89.011,39.737C88.8,24.113,76.092,11,60.42,11A30.03,30.03,0,0,0,35.884,24.176,14.364,14.364,0,0,0,13.572,36.144c0,.275.025.542.041.815-.018.327-.041.657-.041.981A23,23,0,0,0,1,57.975,21.336,21.336,0,0,0,22.274,79.249H66.289c.248,0,.489-.029.733-.038.246.009.487.038.735.038H85.363A19.866,19.866,0,0,0,105.17,59.443,20.146,20.146,0,0,0,89.011,39.737Z" transform="translate(0 0)" fill="url(#linear-gradient)"/>
      </g>
      <g id="Mask_Group_2121" data-name="Mask Group 2121" transform="translate(-2 6)" clip-path="url(#clip-path)">
        <path id="Path_6442" data-name="Path 6442" d="M236.4,135.115c-.03.143,9.611,8.415,9.578,8.558-1.348,6.108-11.818,4.193-11.818,10.449v12.091a3.354,3.354,0,0,1-3.353,3.353H218.718q-1.356,0-2.707.051L185.128,138.73a4.1,4.1,0,0,1-.793-2.893q0-9.165,4.682-13.186c.313-.29.947-.8,1.9-1.529-.262-.225-14.95-14.971-15.12-15.12a3.062,3.062,0,0,1-1.042-2.454q0-2.79,3.93-5.464a17.354,17.354,0,0,1,9.971-2.674q7.578,0,11.94,3.891Z" transform="translate(733.469 1080.174)" opacity="0.24" fill="url(#linear-gradient-3)"/>
        <path id="Path_6443" data-name="Path 6443" d="M250.225,392.57a88.469,88.469,0,0,0-11.491,1.571L221.193,376.6a4.221,4.221,0,0,1,0-6.213,4.717,4.717,0,0,1,3.367-1.288,5.291,5.291,0,0,1,3.558,1.288Z" transform="translate(696.769 857.349)" opacity="0.09" fill="url(#linear-gradient-4)"/>
      </g>
    </g>
    <g id="Page-1" transform="translate(848 1051)">
      <g id="_002---API" data-name="002---API" transform="translate(0 0)">
        <path id="Shape" d="M24.442,37.837A9.031,9.031,0,0,0,32.4,33H16.486a9.031,9.031,0,0,0,7.956,4.837Z" transform="translate(-5.095 -10.198)" fill="#fff"/>
        <path id="Shape-2" data-name="Shape" d="M30.455,16.382A1.383,1.383,0,0,0,29.073,15H27v2.764h2.073A1.383,1.383,0,0,0,30.455,16.382Z" transform="translate(-8.344 -4.635)" fill="#fff"/>
        <path id="Shape-3" data-name="Shape" d="M18.708,17.163l-.654,1.96h1.307Z" transform="translate(-5.579 -5.304)" fill="#fff"/>
        <path id="Shape-4" data-name="Shape" d="M9.124,32.889a8.949,8.949,0,0,1-2.061-.248L4.93,33.52l1.711,4.15,2.917-1.2a.692.692,0,0,1,.829.242,12.722,12.722,0,0,0,3.127,3.126.69.69,0,0,1,.242.83l-1.2,2.91L16.7,45.293l1.2-2.912a.691.691,0,0,1,.759-.416,12.485,12.485,0,0,0,4.414-.006.693.693,0,0,1,.761.415l1.211,2.917,4.141-1.717-1.2-2.917a.691.691,0,0,1,.245-.831,12.583,12.583,0,0,0,3.125-3.119.69.69,0,0,1,.829-.241L35.1,37.672l1.721-4.149-1.551-.646c-.078,0-.154.012-.233.012H30.357a10.345,10.345,0,0,1-18.973,0Z" transform="translate(-1.523 -10.087)" fill="#fff"/>
        <path id="Shape-5" data-name="Shape" d="M7.6,21.42H33.512a5.182,5.182,0,0,0,0-10.365h-.069a.691.691,0,0,1-.652-.461,6.556,6.556,0,0,0-6.229-4.376c-.068,0-.135,0-.2.005a.7.7,0,0,1-.694-.443A8.981,8.981,0,0,0,8.876,5.8a.69.69,0,0,1-.716.443,5.564,5.564,0,0,0-.56-.024,7.6,7.6,0,1,0,0,15.2ZM24.184,8.983H28.33a.691.691,0,1,1,0,1.382H26.948v6.91H28.33a.691.691,0,1,1,0,1.382H24.184a.691.691,0,1,1,0-1.382h1.382v-6.91H24.184a.691.691,0,1,1,0-1.382Zm-6.219,0h2.764a2.764,2.764,0,0,1,0,5.528H18.656v3.455a.691.691,0,0,1-1.382,0V9.674A.691.691,0,0,1,17.965,8.983ZM11.091,6c1.522-4.566,5.331-4.618,5.492-4.618a.691.691,0,0,1,0,1.382c-.134,0-2.99.088-4.185,3.674A.691.691,0,1,1,11.091,6ZM9.709,17.747l2.764-8.292c.005-.016.018-.026.024-.041a.746.746,0,0,1,.372-.372c.015-.006.025-.018.041-.023a.648.648,0,0,1,.078-.01.577.577,0,0,1,.282,0,.644.644,0,0,1,.078.01c.016.005.026.017.041.023a.748.748,0,0,1,.372.372c.006.015.019.026.024.041l2.764,8.292a.691.691,0,0,1-1.311.437L14.243,15.2H12.014l-.994,2.983a.691.691,0,1,1-1.311-.437ZM4.949,8.2a.691.691,0,1,1,.59,1.25,4.858,4.858,0,0,0-2.776,4.371,4.749,4.749,0,0,0,1.069,3.02.691.691,0,1,1-1.074.87A6.2,6.2,0,0,1,4.949,8.2Z" transform="translate(0 0)" fill="#fff"/>
      </g>
    </g>
  </g>
</svg>
