<svg xmlns="http://www.w3.org/2000/svg" xmlns:xlink="http://www.w3.org/1999/xlink" width="78.627" height="77.394" viewBox="0 0 78.627 77.394">
  <defs>
    <linearGradient id="linear-gradient" x1="0.5" x2="0.5" y2="1" gradientUnits="objectBoundingBox">
      <stop offset="0" stop-color="#d17aff"/>
      <stop offset="1" stop-color="#816dff"/>
    </linearGradient>
    <linearGradient id="linear-gradient-2" x2="1.372" xlink:href="#linear-gradient"/>
  </defs>
  <g id="Group_2328" data-name="Group 2328" transform="translate(-1210.887 -1026.075)">
    <g id="quotation" transform="translate(1210.887 1026.075)">
      <path id="Path_3800" data-name="Path 3800" d="M2.186,151.421a38.674,38.674,0,1,1,21.449,26.54,10.776,10.776,0,0,0-9.648.393,28.288,28.288,0,0,1-9.447,2.87,3.982,3.982,0,0,1-4.329-5.2,54.717,54.717,0,0,0,1.975-24.6Zm0,0" transform="translate(0.002 -104.155)" fill="url(#linear-gradient)"/>
      <path id="Path_3801" data-name="Path 3801" d="M93.123,104.162a38.6,38.6,0,0,0-26.33,9.565c-1.079,12.6.494,33.24,19.292,44.927a20.614,20.614,0,0,1,9.466,13.551,27.373,27.373,0,0,1,.176,9.2,38.7,38.7,0,0,0-2.6-77.239Zm0,0" transform="translate(-52.424 -104.155)" fill="url(#linear-gradient-2)"/>
    </g>
    <g id="_004-call-center" data-name="004-call-center" transform="translate(1233.017 1046.876)">
      <g id="Group_2283" data-name="Group 2283" transform="translate(3.31)">
        <g id="Group_2280" data-name="Group 2280" transform="translate(16.087 13.589)">
          <circle id="Ellipse_1891" data-name="Ellipse 1891" cx="1.428" cy="1.428" r="1.428" fill="#fff"/>
        </g>
        <g id="Group_2281" data-name="Group 2281">
          <path id="Path_6440" data-name="Path 6440" d="M28.371,19.4h.28a2.467,2.467,0,0,0,2.465-2.467V14.221a2.471,2.471,0,0,0-1.292-2.171C29.8,8.2,28.673,5.189,26.48,3.109,24.3,1.047,21.188,0,17.213,0S10.119,1.046,7.944,3.109C5.752,5.189,4.629,8.2,4.6,12.05A2.468,2.468,0,0,0,3.31,14.221v2.713A2.467,2.467,0,0,0,5.777,19.4H7.5s.359.763.571,1.2a3.654,3.654,0,0,1-.456,1.746,4.445,4.445,0,0,1-2.167,1.435.183.183,0,0,0,.017.351,4.087,4.087,0,0,0,1.1.109,6.108,6.108,0,0,1-1.8,1.566.767.767,0,0,0-.011,1.324,9.664,9.664,0,0,0,.957.5,10.543,10.543,0,0,0-.785,3.976v.615A3.109,3.109,0,0,0,8.04,35.331H26.391A3.108,3.108,0,0,0,29.5,32.223v-.615a10.584,10.584,0,0,0-.78-3.981,9.653,9.653,0,0,0,.95-.493.766.766,0,0,0-.011-1.324,6.113,6.113,0,0,1-1.8-1.566,3.989,3.989,0,0,0,1.1-.109.184.184,0,0,0,.018-.351,4.424,4.424,0,0,1-2.167-1.435,3.627,3.627,0,0,1-.455-1.746c.211-.439.571-1.2.571-1.2h1.447ZM20.1,11.16a10.338,10.338,0,0,1,5.715,2.056c.048.579.08,1.174.08,1.811a12.209,12.209,0,0,1-.74,3.985,10.536,10.536,0,0,1-1.125,2.2c-1.869,2.9-4.941,4.364-6.818,4.364s-4.879-1.51-6.816-4.364a11.833,11.833,0,0,0,4.33.971,2.516,2.516,0,0,0,2.231,1.086c1.324,0,2.394-.76,2.394-1.7s-1.071-1.7-2.394-1.7a2.569,2.569,0,0,0-2.187,1.011c-2.012-.124-4.285-.592-5.661-2.254a11.172,11.172,0,0,1-.58-3.6c0-.36.014-.707.027-1.048A5.936,5.936,0,0,0,13.281,8.1c1.905,3.889,5.137,3.7,6.965,4.248a.359.359,0,0,0,.407-.535A3.1,3.1,0,0,0,20.1,11.16Zm5.095-4.967c-1.776-2.282-4.46-3.441-7.983-3.441S11.005,3.91,9.231,6.193a11.86,11.86,0,0,0-2.195,5.563H6.087C6.243,5.032,10.08,1.48,17.212,1.48S28.181,5.032,28.339,11.755h-.95A11.848,11.848,0,0,0,25.195,6.193Z" transform="translate(-3.31)" fill="#fff"/>
        </g>
        <g id="Group_2282" data-name="Group 2282" transform="translate(8.864 13.589)">
          <circle id="Ellipse_1892" data-name="Ellipse 1892" cx="1.428" cy="1.428" r="1.428" fill="#fff"/>
        </g>
      </g>
    </g>
  </g>
</svg>
