<svg xmlns="http://www.w3.org/2000/svg" xmlns:xlink="http://www.w3.org/1999/xlink" width="49.075" height="50" viewBox="0 0 49.075 50">
  <defs>
    <linearGradient id="linear-gradient" x1="-0.449" y1="-0.888" x2="1" y2="1" gradientUnits="objectBoundingBox">
      <stop offset="0" stop-color="#ffd3a5"/>
      <stop offset="1" stop-color="#fd6585"/>
    </linearGradient>
    <linearGradient id="linear-gradient-2" x1="0" y1="-0.285" x2="1.191" y2="1.34" xlink:href="#linear-gradient"/>
  </defs>
  <g id="maximise-button" transform="translate(-2.262)">
    <rect id="Rectangle_11313" data-name="Rectangle 11313" width="18.83" height="14.096" transform="translate(17.385 20.57)" fill="url(#linear-gradient)"/>
    <path id="Path_6448" data-name="Path 6448" d="M49.439,0H4.16a1.9,1.9,0,0,0-1.9,1.9V48.1A1.9,1.9,0,0,0,4.16,50H49.439a1.9,1.9,0,0,0,1.9-1.9V1.9A1.9,1.9,0,0,0,49.439,0ZM40.091,37.514a1.03,1.03,0,0,1-1.028,1.028H14.537a1.03,1.03,0,0,1-1.028-1.028V12.487a1.03,1.03,0,0,1,1.028-1.028H39.062a1.03,1.03,0,0,1,1.028,1.028V37.514Z" fill="url(#linear-gradient-2)"/>
  </g>
</svg>
