<svg xmlns="http://www.w3.org/2000/svg" xmlns:xlink="http://www.w3.org/1999/xlink" width="50" height="50" viewBox="0 0 50 50">
  <defs>
    <linearGradient id="linear-gradient" x1="0.5" x2="2.146" y2="2.12" gradientUnits="objectBoundingBox">
      <stop offset="0" stop-color="#febadb"/>
      <stop offset="1" stop-color="#ff5de1"/>
    </linearGradient>
  </defs>
  <g id="Group_2334" data-name="Group 2334" transform="translate(-1325 -1848)">
    <path id="Path_6473" data-name="Path 6473" d="M4,0H46a4,4,0,0,1,4,4V46a4,4,0,0,1-4,4H4a4,4,0,0,1-4-4V4A4,4,0,0,1,4,0Z" transform="translate(1325 1848)" fill="url(#linear-gradient)"/>
    <g id="customer-service" transform="translate(1338 1860.156)">
      <g id="Group_2292" data-name="Group 2292" transform="translate(7.779 13.564)">
        <g id="Group_2291" data-name="Group 2291">
          <path id="Path_6466" data-name="Path 6466" d="M161.23,264.484a20.231,20.231,0,0,0,1.4,7.25c.816,1.9,1.867,2.983,2.886,2.983s2.07-1.087,2.886-2.983a20.233,20.233,0,0,0,1.4-7.25Z" transform="translate(-161.23 -264.484)" fill="#fff"/>
        </g>
      </g>
      <g id="Group_2294" data-name="Group 2294" transform="translate(13.657 0.845)">
        <g id="Group_2293" data-name="Group 2293" transform="translate(0 0)">
          <path id="Path_6467" data-name="Path 6467" d="M290.1,4.388a12.01,12.01,0,0,0-7.029-3.52,7.044,7.044,0,0,1,2.643,3.423,21.75,21.75,0,0,1,1.524,7.829h6.311A12.015,12.015,0,0,0,290.1,4.388Z" transform="translate(-283.074 -0.868)" fill="#fff"/>
        </g>
      </g>
      <g id="Group_2296" data-name="Group 2296" transform="translate(7.779 1.865)">
        <g id="Group_2295" data-name="Group 2295">
          <path id="Path_6468" data-name="Path 6468" d="M168.4,24.98c-.816-1.9-1.867-2.983-2.886-2.983s-2.07,1.087-2.886,2.983a20.232,20.232,0,0,0-1.4,7.25h8.58A20.231,20.231,0,0,0,168.4,24.98Z" transform="translate(-161.229 -21.997)" fill="#fff"/>
        </g>
      </g>
      <g id="Group_2298" data-name="Group 2298" transform="translate(0 0.844)">
        <g id="Group_2297" data-name="Group 2297" transform="translate(0 0)">
          <path id="Path_6469" data-name="Path 6469" d="M7.447,1.656A12.081,12.081,0,0,0,0,12.1H6.313A21.751,21.751,0,0,1,7.837,4.269,7.04,7.04,0,0,1,10.482.844,11.975,11.975,0,0,0,7.447,1.656Z" transform="translate(0 -0.844)" fill="#fff"/>
        </g>
      </g>
      <g id="Group_2300" data-name="Group 2300" transform="translate(0.001 13.564)">
        <g id="Group_2299" data-name="Group 2299">
          <path id="Path_6470" data-name="Path 6470" d="M7.852,272.312a21.751,21.751,0,0,1-1.524-7.829H.016A12.122,12.122,0,0,0,10.5,275.736,7.042,7.042,0,0,1,7.852,272.312Z" transform="translate(-0.016 -264.483)" fill="#fff"/>
        </g>
      </g>
      <g id="Group_2302" data-name="Group 2302" transform="translate(13.661 13.564)">
        <g id="Group_2301" data-name="Group 2301">
          <path id="Path_6471" data-name="Path 6471" d="M294.088,274.052l-1.7-4.94a12.123,12.123,0,0,0,1.228-4.627h-6.312a21.752,21.752,0,0,1-1.524,7.829,7.049,7.049,0,0,1-2.64,3.422,12.106,12.106,0,0,0,3.768-1.144l4.94,1.7a1.774,1.774,0,0,0,.577.1,1.763,1.763,0,0,0,1.66-2.335Z" transform="translate(-283.143 -264.485)" fill="#fff"/>
        </g>
      </g>
    </g>
  </g>
</svg>
