<svg xmlns="http://www.w3.org/2000/svg" xmlns:xlink="http://www.w3.org/1999/xlink" width="50" height="50" viewBox="0 0 50 50">
  <defs>
    <linearGradient id="linear-gradient" x1="0.5" x2="2.146" y2="2.12" gradientUnits="objectBoundingBox">
      <stop offset="0" stop-color="#3be3a2"/>
      <stop offset="1" stop-color="#1dcf8a"/>
    </linearGradient>
  </defs>
  <g id="Group_2290" data-name="Group 2290" transform="translate(-617 -1839)">
    <rect id="Rectangle_11315" data-name="Rectangle 11315" width="50" height="50" rx="4" transform="translate(617 1839)" fill="url(#linear-gradient)"/>
    <g id="Group_2289" data-name="Group 2289" transform="translate(71.665 5.913)">
      <path id="Path_6464" data-name="Path 6464" d="M116.5,185.379h1.744a1.744,1.744,0,0,1,1.744,1.744v8.718a1.744,1.744,0,0,1-1.744,1.744H116.5a1.744,1.744,0,0,1-1.744-1.744v-8.718A1.744,1.744,0,0,1,116.5,185.379Z" transform="translate(441.574 1672.785)" fill="#fff"/>
      <path id="Path_6465" data-name="Path 6465" d="M203.034,67.038v9.94a.874.874,0,0,0,.34.689,6.752,6.752,0,0,0,4.066,1.453h8.3a2.637,2.637,0,0,0,2.226-1.2,29.29,29.29,0,0,0,4.212-10.55,2.637,2.637,0,0,0-2.608-3.066h-2.7a3,3,0,0,1-2.681-1.815c-.442-1.358.438-2.594.831-3.848.419-1.336,1.328-5.7-1.232-5.67a1.586,1.586,0,0,0-1.445,1.005c-1.113,2.788-4.5,9.032-8.528,11.626A1.709,1.709,0,0,0,203.034,67.038Z" transform="translate(362.018 1792.122)" fill="#fff"/>
    </g>
  </g>
</svg>
