<svg xmlns="http://www.w3.org/2000/svg" xmlns:xlink="http://www.w3.org/1999/xlink" width="59.895" height="72.026" viewBox="0 0 59.895 72.026">
  <defs>
    <linearGradient id="linear-gradient" x1="0.5" x2="1.08" y2="1.802" gradientUnits="objectBoundingBox">
      <stop offset="0" stop-color="#ffd3a5"/>
      <stop offset="1" stop-color="#fd6585"/>
    </linearGradient>
    <linearGradient id="linear-gradient-2" x1="0.193" y1="0.059" x2="0.796" y2="1" xlink:href="#linear-gradient"/>
  </defs>
  <g id="layers" transform="translate(-43.116 0)">
    <g id="Group_2305" data-name="Group 2305" transform="translate(43.6 0)">
      <g id="Group_2304" data-name="Group 2304" transform="translate(0 0)">
        <path id="Path_6474" data-name="Path 6474" d="M104.865,20.553,90.157,5.845a20.013,20.013,0,0,0-28.271,0L47.178,20.553a2.116,2.116,0,0,0,2.992,2.992L64.878,8.837a15.777,15.777,0,0,1,22.287,0l14.708,14.708a2.116,2.116,0,1,0,2.992-2.992Z" transform="translate(-46.558 0)" fill="url(#linear-gradient)"/>
      </g>
    </g>
    <g id="Group_2307" data-name="Group 2307" transform="translate(43.116 12.13)">
      <g id="Group_2306" data-name="Group 2306" transform="translate(0)">
        <path id="Path_6475" data-name="Path 6475" d="M100.033,108.978,80.265,89.21a10.2,10.2,0,0,0-14.4,0L46.094,108.978a10.2,10.2,0,0,0,0,14.4l19.768,19.768a10.2,10.2,0,0,0,14.4,0l19.767-19.767A10.2,10.2,0,0,0,100.033,108.978Z" transform="translate(-43.116 -86.232)" fill="url(#linear-gradient-2)"/>
      </g>
    </g>
  </g>
</svg>
