<svg id="nintendo-switch" xmlns="http://www.w3.org/2000/svg" xmlns:xlink="http://www.w3.org/1999/xlink" width="56.14" height="56.14" viewBox="0 0 56.14 56.14">
  <defs>
    <linearGradient id="linear-gradient" x1="0.5" x2="0.5" y2="1" gradientUnits="objectBoundingBox">
      <stop offset="0" stop-color="#febadb"/>
      <stop offset="1" stop-color="#ff5de1"/>
    </linearGradient>
  </defs>
  <g id="Group_2309" data-name="Group 2309" transform="translate(9.868 13.158)">
    <g id="Group_2308" data-name="Group 2308">
      <path id="Path_6476" data-name="Path 6476" d="M93.344,120a3.344,3.344,0,1,0,3.344,3.344A3.348,3.348,0,0,0,93.344,120Z" transform="translate(-90 -120)" fill="url(#linear-gradient)"/>
    </g>
  </g>
  <g id="Group_2311" data-name="Group 2311">
    <g id="Group_2310" data-name="Group 2310">
      <path id="Path_6477" data-name="Path 6477" d="M12.61,0A12.624,12.624,0,0,0,0,12.61V43.531A12.624,12.624,0,0,0,12.61,56.14H26.425V0Zm.6,23.136A6.634,6.634,0,1,1,19.846,16.5,6.641,6.641,0,0,1,13.213,23.136Z" fill="url(#linear-gradient)"/>
    </g>
  </g>
  <g id="Group_2313" data-name="Group 2313" transform="translate(39.583 28.18)">
    <g id="Group_2312" data-name="Group 2312">
      <path id="Path_6478" data-name="Path 6478" d="M364.344,257a3.344,3.344,0,1,0,3.344,3.344A3.348,3.348,0,0,0,364.344,257Z" transform="translate(-361 -257)" fill="url(#linear-gradient)"/>
    </g>
  </g>
  <g id="Group_2315" data-name="Group 2315" transform="translate(29.715)">
    <g id="Group_2314" data-name="Group 2314">
      <path id="Path_6479" data-name="Path 6479" d="M284.816,0H271V56.14h13.816a12.624,12.624,0,0,0,12.61-12.61V12.61A12.624,12.624,0,0,0,284.816,0Zm-.6,38.158a6.634,6.634,0,1,1,6.634-6.634A6.641,6.641,0,0,1,284.213,38.158Z" transform="translate(-271)" fill="url(#linear-gradient)"/>
    </g>
  </g>
</svg>
