<svg id="icon_1_" data-name="icon (1)" xmlns="http://www.w3.org/2000/svg" xmlns:xlink="http://www.w3.org/1999/xlink" width="60" height="60" viewBox="0 0 60 60">
  <defs>
    <linearGradient id="linear-gradient" x1="0.5" x2="0.5" y2="1" gradientUnits="objectBoundingBox">
      <stop offset="0" stop-color="#d7a8fe"/>
      <stop offset="0.178" stop-color="#d6abfd"/>
      <stop offset="0.388" stop-color="#ca9afe"/>
      <stop offset="0.613" stop-color="#ba83fe"/>
      <stop offset="0.849" stop-color="#b784fe"/>
      <stop offset="1" stop-color="#b883fd"/>
    </linearGradient>
  </defs>
  <g id="Group_2303" data-name="Group 2303">
    <path id="Path_6472" data-name="Path 6472" d="M30,0A30,30,0,1,0,60,30,30,30,0,0,0,30,0Zm2.868,32.64A3.966,3.966,0,1,1,30.7,25.914l10.362-7.008L33.988,29.224A3.956,3.956,0,0,1,32.868,32.64ZM55.556,22.377a25.618,25.618,0,0,1,1.015,4.018l.132.808c.035.262.06.519.087.753s.048.453.069.653.024.33.035.473c.036.549.056.842.056.842l-6.1.154s0-.294.013-.844c0-.132.008-.305,0-.447s-.01-.287-.015-.449-.01-.34-.016-.527-.034-.412-.052-.637a19.9,19.9,0,0,0-.535-3.215,21.408,21.408,0,0,0-1.439-4.009,21.635,21.635,0,0,0-2.729-4.3,21.245,21.245,0,0,0-1.914-2.056c-.342-.34-.719-.647-1.09-.97-.189-.158-.388-.3-.583-.459s-.394-.307-.6-.448a21.827,21.827,0,0,0-5.51-2.866A22.826,22.826,0,0,0,33.26,8.01c-.536-.092-1.074-.191-1.619-.245-.272-.034-.544-.069-.819-.081l-.411-.028-.206-.014-.1-.007-.052,0-.026,0c.009,0-.056,0,.013,0-.576,0-1.2-.033-1.711,0-.527,0-1.079.056-1.629.1a23.3,23.3,0,0,0-3.243.579A22.67,22.67,0,0,0,17.5,10.778c-.231.129-.454.268-.672.414s-.442.282-.655.43c-.42.306-.848.6-1.241.924A22.764,22.764,0,0,0,12.7,14.56a23.27,23.27,0,0,0-5.333,8.687A22.542,22.542,0,0,0,6.452,26.8q-.064.378-.121.715-.041.339-.077.635c-.049.395-.086.732-.1,1.006C6.121,29.707,6.1,30,6.1,30s0-.294-.013-.844c-.01-.276,0-.616.016-1.015q.012-.3.025-.645.03-.343.063-.729a22.948,22.948,0,0,1,.635-3.679A24.464,24.464,0,0,1,8.5,18.509a24.719,24.719,0,0,1,3.143-4.891,24.319,24.319,0,0,1,2.194-2.332c.393-.383.823-.733,1.249-1.1.216-.178.443-.346.667-.52s.451-.346.688-.506a24.869,24.869,0,0,1,6.3-3.232A25.853,25.853,0,0,1,26.3,4.992c.609-.1,1.217-.21,1.861-.27.661-.085,1.207-.1,1.8-.145l.975-.013c.313-.01.625,0,.937.017.626.012,1.248.071,1.872.129a26.333,26.333,0,0,1,3.68.676,25.723,25.723,0,0,1,6.744,2.838c.26.148.512.307.758.473s.5.322.739.491c.475.347.956.682,1.4,1.053a25.813,25.813,0,0,1,2.509,2.289,26.308,26.308,0,0,1,5.981,9.848Z" fill="url(#linear-gradient)"/>
  </g>
</svg>
