<svg xmlns="http://www.w3.org/2000/svg" xmlns:xlink="http://www.w3.org/1999/xlink" width="27.357" height="34.615" viewBox="0 0 27.357 34.615">
  <defs>
    <linearGradient id="linear-gradient" x1="0.5" x2="0.5" y2="1" gradientUnits="objectBoundingBox">
      <stop offset="0" stop-color="#fedfb1"/>
      <stop offset="1" stop-color="#ee3965"/>
    </linearGradient>
    <linearGradient id="linear-gradient-2" x1="1.147" y1="1.205" x2="0.098" y2="0.185" xlink:href="#linear-gradient"/>
    <linearGradient id="linear-gradient-3" x1="2.19" y1="5.516" xlink:href="#linear-gradient"/>
    <linearGradient id="linear-gradient-5" x2="1.205" y2="8.104" xlink:href="#linear-gradient"/>
    <linearGradient id="linear-gradient-6" x1="1.858" y1="5.41" xlink:href="#linear-gradient"/>
  </defs>
  <g id="cloud-computing" transform="translate(-7 -0.5)">
    <path id="Path_9852" data-name="Path 9852" d="M8.681.5H8.675A1.68,1.68,0,0,0,7,2.175V27.3A1.676,1.676,0,0,1,8.675,25.63H23.069a6.133,6.133,0,0,1,5.147-2.792V1.058L27.658.5Z" transform="translate(0)" fill="url(#linear-gradient)"/>
    <path id="Path_9853" data-name="Path 9853" d="M38.316,46.138a1.116,1.116,0,1,0,0,1.084,1.084,1.084,0,0,0,0-1.084Zm2.518,2.228a1.117,1.117,0,1,0,.977-.575A1.117,1.117,0,0,0,40.834,48.365Zm0-3.378a1.118,1.118,0,1,0-.14-.542A1.123,1.123,0,0,0,40.834,44.988Zm-.692-4.478A6.139,6.139,0,1,1,34,46.651a6.176,6.176,0,0,1,.994-3.35,6.134,6.134,0,0,1,5.147-2.792Z" transform="translate(-11.926 -17.672)" fill="url(#linear-gradient-2)"/>
    <path id="Path_9854" data-name="Path 9854" d="M9.233,47.185H22.309a5.943,5.943,0,0,0-.234,1.675H8.675a1.675,1.675,0,0,1,0-3.35h.558Z" transform="translate(0 -19.88)" fill="url(#linear-gradient-3)"/>
    <path id="Path_9855" data-name="Path 9855" d="M11,45.51H24.836a5.885,5.885,0,0,0-.76,1.675H11Z" transform="translate(-1.767 -19.88)" fill="#e6e9ed"/>
    <path id="Path_9856" data-name="Path 9856" d="M47.233,4.058V9.083L45,11.316V3.5h1.675Z" transform="translate(-16.784 -1.325)" fill="url(#linear-gradient)"/>
    <path id="Path_9857" data-name="Path 9857" d="M17.239,29.182A2.239,2.239,0,0,1,15,26.943V25.274a2.243,2.243,0,0,0,2.239,2.239H24.77A2.516,2.516,0,0,0,27.283,25v1.669a2.517,2.517,0,0,1-2.512,2.512Z" transform="translate(-3.533 -10.821)" fill="#e6e9ed"/>
    <path id="Path_9858" data-name="Path 9858" d="M24.888,18.3a2.511,2.511,0,0,1-.118,5.019H17.239a2.236,2.236,0,1,1,0-4.472l.039.006a3.907,3.907,0,0,1,7.61-.553Z" transform="translate(-3.533 -6.63)" fill="#fff"/>
    <path id="Union_1" data-name="Union 1" d="M4.467,5.856q0-.058,0-.114L2.251,4.728a1.376,1.376,0,0,1-.855.3,1.4,1.4,0,1,1,.854-2.5L4.471,1.511q0-.057,0-.115A1.4,1.4,0,1,1,5,2.5L2.787,3.509q.005.059.005.12t0,.117L5,4.757a1.395,1.395,0,1,1-.537,1.1Z" transform="translate(24.023 25.379)" fill="url(#linear-gradient-5)"/>
    <ellipse id="Ellipse_2104" data-name="Ellipse 2104" cy="0.5" ry="0.5" transform="translate(28.052 0.782)" fill="#ffce54"/>
    <circle id="Ellipse_2105" data-name="Ellipse 2105" cx="0.5" cy="0.5" r="0.5" transform="translate(29.052 1.782)" fill="url(#linear-gradient-6)"/>
  </g>
</svg>
