<svg xmlns="http://www.w3.org/2000/svg" xmlns:xlink="http://www.w3.org/1999/xlink" width="30.898" height="34.208" viewBox="0 0 30.898 34.208">
  <defs>
    <linearGradient id="linear-gradient" x1="0.5" x2="0.5" y2="1" gradientUnits="objectBoundingBox">
      <stop offset="0" stop-color="#fedfb1"/>
      <stop offset="1" stop-color="#ee3965"/>
    </linearGradient>
    <linearGradient id="linear-gradient-4" y1="1.779" y2="-0.299" xlink:href="#linear-gradient"/>
    <linearGradient id="linear-gradient-5" y2="1.169" xlink:href="#linear-gradient"/>
  </defs>
  <g id="cloud_1_" data-name="cloud (1)" transform="translate(-4 -1)">
    <g id="Group_3824" data-name="Group 3824" transform="translate(8.413 8.174)">
      <path id="Path_9865" data-name="Path 9865" d="M50.555,16.209A.551.551,0,0,1,50,15.657v-1.1a.552.552,0,0,1,1.1,0v1.1A.551.551,0,0,1,50.555,16.209Z" transform="translate(-29.035 -14.002)" fill="#fdddb0"/>
      <path id="Path_9866" data-name="Path 9866" d="M12.551,16.209A.551.551,0,0,1,12,15.657v-1.1a.552.552,0,0,1,1.1,0v1.1A.551.551,0,0,1,12.551,16.209Z" transform="translate(-11.999 -14.002)" fill="#fdddb0"/>
      <path id="Path_9867" data-name="Path 9867" d="M31.553,20.072A.551.551,0,0,1,31,19.521V14.554a.552.552,0,1,1,1.1,0v4.967A.551.551,0,0,1,31.553,20.072Z" transform="translate(-20.517 -14.002)" fill="#fdddb0"/>
      <path id="Path_9868" data-name="Path 9868" d="M33.312,19.105H14.551a.552.552,0,0,1,0-1.1H33.312a.552.552,0,1,1,0,1.1Z" transform="translate(-12.896 -15.795)" fill="#fdddb0"/>
      <path id="Path_9869" data-name="Path 9869" d="M13.654,18.209A1.657,1.657,0,0,1,12,16.554a.552.552,0,1,1,1.1,0,.552.552,0,0,0,.552.552.552.552,0,0,1,0,1.1Z" transform="translate(-11.999 -14.899)" fill="#fdddb0"/>
      <path id="Path_9870" data-name="Path 9870" d="M48.555,18.209a.552.552,0,1,1,0-1.1.552.552,0,0,0,.552-.552.552.552,0,0,1,1.1,0A1.657,1.657,0,0,1,48.555,18.209Z" transform="translate(-28.138 -14.899)" fill="#fdddb0"/>
    </g>
    <path id="Path_9871" data-name="Path 9871" d="M49.211,10a2.2,2.2,0,0,1,2.2,2.064,3.833,3.833,0,0,1-4.4,0A2.2,2.2,0,0,1,49.211,10Z" transform="translate(-19.28 -4.034)" fill="#fdddb0"/>
    <path id="Path_9872" data-name="Path 9872" d="M46.759,4.862a1.106,1.106,0,0,0,1.1,1.1,2.2,2.2,0,0,0-2.2,2.064,3.862,3.862,0,1,1,4.4,0,2.2,2.2,0,0,0-2.2-2.064,1.1,1.1,0,1,0-1.1-1.1Z" transform="translate(-17.93 0)" fill="url(#linear-gradient)"/>
    <path id="Path_9873" data-name="Path 9873" d="M30.211,10a2.2,2.2,0,0,1,2.2,2.064,3.833,3.833,0,0,1-4.4,0A2.2,2.2,0,0,1,30.211,10Z" transform="translate(-10.763 -4.034)" fill="#fdddb0"/>
    <path id="Path_9874" data-name="Path 9874" d="M27.759,4.862a1.106,1.106,0,0,0,1.1,1.1,2.2,2.2,0,0,0-2.2,2.064,3.862,3.862,0,1,1,4.4,0,2.2,2.2,0,0,0-2.2-2.064,1.1,1.1,0,1,0-1.1-1.1Z" transform="translate(-9.413 0)" fill="url(#linear-gradient)"/>
    <path id="Path_9875" data-name="Path 9875" d="M11.207,10a2.2,2.2,0,0,1,2.2,2.064A3.83,3.83,0,0,1,9,12.058,2.209,2.209,0,0,1,11.207,10Z" transform="translate(-2.241 -4.034)" fill="#fdddb0"/>
    <path id="Path_9876" data-name="Path 9876" d="M8.759,4.862a1.1,1.1,0,0,0,1.1,1.1A2.209,2.209,0,0,0,7.655,8.024a3.861,3.861,0,1,1,4.408.006,2.2,2.2,0,0,0-2.2-2.064,1.1,1.1,0,1,0-1.1-1.1Z" transform="translate(-0.897)" fill="url(#linear-gradient)"/>
    <path id="Path_9877" data-name="Path 9877" d="M4,47.909a5.519,5.519,0,0,0,5.517,5.517H28a6.9,6.9,0,0,0,6.9-6.9v2.19a6.9,6.9,0,0,1-6.9,6.9H9.517A5.519,5.519,0,0,1,4,50.1Z" transform="translate(0 -20.409)" fill="url(#linear-gradient-4)"/>
    <path id="Path_9878" data-name="Path 9878" d="M10.135,32.317A9.377,9.377,0,0,1,28,29.547H28a6.9,6.9,0,1,1,0,13.794H9.517a5.517,5.517,0,1,1,0-11.035h.552Z" transform="translate(0 -10.323)" fill="url(#linear-gradient-5)"/>
    <path id="Path_9885" data-name="Path 9885" d="M51.259,7.379A1.379,1.379,0,1,1,49.879,6,1.383,1.383,0,0,1,51.259,7.379Z" transform="translate(-19.947 -2.241)" fill="#fdddb0"/>
    <path id="Path_9886" data-name="Path 9886" d="M32.259,7.379A1.379,1.379,0,1,1,30.879,6,1.383,1.383,0,0,1,32.259,7.379Z" transform="translate(-11.431 -2.241)" fill="#fdddb0"/>
    <path id="Path_9887" data-name="Path 9887" d="M13.259,7.379A1.379,1.379,0,1,1,11.879,6,1.383,1.383,0,0,1,13.259,7.379Z" transform="translate(-2.914 -2.241)" fill="#fdddb0"/>
  </g>
</svg>
