<svg xmlns="http://www.w3.org/2000/svg" xmlns:xlink="http://www.w3.org/1999/xlink" width="24.797" height="30.997" viewBox="0 0 24.797 30.997">
  <defs>
    <linearGradient id="linear-gradient" x1="0.107" y1="-0.036" x2="0.5" y2="1" gradientUnits="objectBoundingBox">
      <stop offset="0" stop-color="#fedfb1"/>
      <stop offset="1" stop-color="#ee3965"/>
    </linearGradient>
    <linearGradient id="linear-gradient-2" x1="0.5" y1="0" xlink:href="#linear-gradient"/>
    <linearGradient id="linear-gradient-4" x1="0.5" y1="0" x2="-1.004" y2="0.267" xlink:href="#linear-gradient"/>
  </defs>
  <g id="spellbook" transform="translate(-95.8 -56.015)">
    <path id="Path_9904" data-name="Path 9904" d="M99.521,130.035h17.358a3.724,3.724,0,0,0,3.72-3.72V104h-1.24a2.483,2.483,0,0,1-2.472,2.48H98.9c-1.941,0-3.1.926-3.1,2.48v17.358a4.268,4.268,0,0,0,3.72,3.72Zm0,0" transform="translate(0 -44.266)" fill="url(#linear-gradient)"/>
    <path id="Path_9905" data-name="Path 9905" d="M132.259,364.961V360H114.272a2.482,2.482,0,0,0-2.471,2.48h0a2.483,2.483,0,0,0,2.481,2.48Zm0,0" transform="translate(-14.761 -280.429)" fill="#e6e9ed"/>
    <path id="Path_9906" data-name="Path 9906" d="M117.5,56.015H99.519a3.723,3.723,0,0,0-3.718,3.72V82.051h1.24a2.482,2.482,0,0,1,2.471-2.48H117.5c1.941,0,3.1-.927,3.1-2.48V59.115a3.1,3.1,0,0,0-3.1-3.1Zm0,0" transform="translate(0)" fill="url(#linear-gradient-2)"/>
    <path id="Path_9910" data-name="Path 9910" d="M101.38,56.016H99.519a3.723,3.723,0,0,0-3.718,3.72V82.052h1.24a2.482,2.482,0,0,1,2.471-2.48h1.869Zm0,0" transform="translate(-0.001 0)" fill="url(#linear-gradient-2)"/>
    <path id="Path_9911" data-name="Path 9911" d="M173.38,385.256h-4.959a.62.62,0,1,1,0-1.24h4.959a.62.62,0,0,1,0,1.24Zm0,0" transform="translate(-66.421 -302.583)" fill="#ccd1d9"/>
    <path id="Path_9931" data-name="Path 9931" d="M99.521,272a3.7,3.7,0,0,0-3.664,4.34,3.717,3.717,0,0,1,3.664-3.1h1.86V272Zm0,0" transform="translate(-0.001 -199.248)" fill="url(#linear-gradient-4)"/>
    <path id="Path_9932" data-name="Path 9932" d="M99.521,200.016a3.7,3.7,0,0,0-3.664,4.34,3.717,3.717,0,0,1,3.664-3.1h1.86v-1.241Zm0,0" transform="translate(-0.001 -132.842)" fill="url(#linear-gradient-4)"/>
    <path id="Path_9933" data-name="Path 9933" d="M99.521,128.016a3.7,3.7,0,0,0-3.664,4.34,3.717,3.717,0,0,1,3.664-3.1h1.86v-1.241Zm0,0" transform="translate(-0.001 -66.421)" fill="url(#linear-gradient-4)"/>
    <path id="Path_9934" data-name="Path 9934" d="M99.521,394.5a2.483,2.483,0,0,1-2.481-2.48H95.8a3.724,3.724,0,0,0,3.72,3.72h1.86V394.5Zm0,0" transform="translate(0 -309.964)" fill="url(#linear-gradient-2)"/>
    <path id="Path_9935" data-name="Path 9935" d="M187.521,395.736v1.24l-1.86-.62-1.86.62v-4.96h3.72Zm0,0" transform="translate(-81.181 -309.964)" fill="#ed5565"/>
  </g>
</svg>
