<svg id="cloud" xmlns="http://www.w3.org/2000/svg" xmlns:xlink="http://www.w3.org/1999/xlink" width="39.199" height="27.278" viewBox="0 0 39.199 27.278">
  <defs>
    <linearGradient id="linear-gradient" x1="0.469" y1="-3.92" x2="0.366" y2="7.149" gradientUnits="objectBoundingBox">
      <stop offset="0" stop-color="#fedfb1"/>
      <stop offset="1" stop-color="#ee3965"/>
    </linearGradient>
    <linearGradient id="linear-gradient-2" x1="0.5" y1="0" x2="0.5" y2="1" xlink:href="#linear-gradient"/>
  </defs>
  <path id="Path_9829" data-name="Path 9829" d="M12.75,31.75H36.2a7,7,0,0,0,7-7v2.779a7,7,0,0,1-7,7H12.75A8.749,8.749,0,0,1,4,25.779V23A8.749,8.749,0,0,0,12.75,31.75Z" transform="translate(-4 -7.25)" fill="url(#linear-gradient)"/>
  <path id="Path_9830" data-name="Path 9830" d="M12.757,7.5H12.75a8.75,8.75,0,1,0,0,17.5H36.2a7,7,0,0,0,0-14h-.7l-.084.014A11.9,11.9,0,0,0,12.757,7.5Z" transform="translate(-4 -0.5)" fill="url(#linear-gradient-2)"/>
</svg>
