<svg xmlns="http://www.w3.org/2000/svg" xmlns:xlink="http://www.w3.org/1999/xlink" width="30.547" height="27.276" viewBox="0 0 30.547 27.276">
  <defs>
    <linearGradient id="linear-gradient" x1="0.538" y1="1.946" x2="0.534" y2="-0.12" gradientUnits="objectBoundingBox">
      <stop offset="0" stop-color="#fedfb1"/>
      <stop offset="1" stop-color="#ee3965"/>
    </linearGradient>
    <linearGradient id="linear-gradient-2" x1="-6.989" y1="-5.198" x2="-11.356" y2="-9.919" gradientUnits="objectBoundingBox">
      <stop offset="0" stop-color="#ffae8b"/>
      <stop offset="1" stop-color="#fe4f6c"/>
    </linearGradient>
    <linearGradient id="linear-gradient-4" x1="0.73" y1="-0.965" x2="-0.976" y2="4.305" xlink:href="#linear-gradient"/>
  </defs>
  <g id="Group_3822" data-name="Group 3822" transform="translate(-646.994 -1244.002)">
    <path id="Path_9841" data-name="Path 9841" d="M63.364,4.514V24.15h-24L35,29.614V4.514Z" transform="translate(613.089 1240.577)" fill="url(#linear-gradient)"/>
    <path id="Path_9844" data-name="Path 9844" d="M42.21,12.873a2.176,2.176,0,0,1-.023-4.353h.023a2.176,2.176,0,1,1,0,4.353Z" transform="translate(613.546 1240.941)" fill="url(#linear-gradient-2)"/>
    <path id="Path_9845" data-name="Path 9845" d="M35.087,30.792a1.066,1.066,0,0,1-.361-.062A1.091,1.091,0,0,1,34,29.7V4.607a1.09,1.09,0,0,1,1.091-1.091H63.452a1.09,1.09,0,0,1,1.091,1.091V24.243a1.09,1.09,0,0,1-1.091,1.091H39.976l-4.036,5.05A1.093,1.093,0,0,1,35.087,30.792ZM36.178,5.7V26.59L38.6,23.561a1.1,1.1,0,0,1,.852-.409h22.91V5.7Z" transform="translate(612.998 1240.486)" fill="url(#linear-gradient)"/>
    <path id="Path_9850" data-name="Path 9850" d="M48.617,23.969a1.072,1.072,0,0,0-.171-1l-3.237-4.046a.883.883,0,0,0-.093-.076.8.8,0,0,0-.077-.094c-.026-.022-.061-.027-.088-.047a1.034,1.034,0,0,0-.19-.1,1.2,1.2,0,0,0-.2-.064,1.105,1.105,0,0,0-.207-.015,1.02,1.02,0,0,0-.2.015,1.036,1.036,0,0,0-.205.064,1.194,1.194,0,0,0-.185.1c-.028.02-.063.023-.091.047a.94.94,0,0,0-.079.094,1,1,0,0,0-.092.076L39.47,23.969Z" transform="translate(613.496 1241.851)" fill="url(#linear-gradient-4)"/>
    <path id="Path_9851" data-name="Path 9851" d="M58.675,24.241l-6.216-8.289a.954.954,0,0,0-.116-.1,1.013,1.013,0,0,0-.1-.115.362.362,0,0,0-.056-.025,1.071,1.071,0,0,0-.212-.1,1.2,1.2,0,0,0-.176-.062,2.2,2.2,0,0,0-.415,0,1.106,1.106,0,0,0-.2.069,1.091,1.091,0,0,0-.2.094c-.019.013-.039.015-.058.027a.881.881,0,0,0-.1.117.927.927,0,0,0-.115.1L44.5,24.241Z" transform="translate(613.953 1241.578)" fill="url(#linear-gradient-4)"/>
  </g>
</svg>
